<svg width="65" height="65" viewBox="0 0 65 65" fill="none" xmlns="http://www.w3.org/2000/svg">
<path d="M63.2123 28.4992L36.3024 1.58238C35.2805 0.568755 33.8995 0 32.4601 0C31.0208 0 29.6398 0.568755 28.6179 1.58238L2.08524 28.0941C1.06992 29.1151 0.5 30.4964 0.5 31.9363C0.5 33.3762 1.06992 34.7576 2.08524 35.7786L28.7576 62.8631C29.2641 63.3732 29.8665 63.7781 30.5301 64.0543C31.1938 64.3306 31.9055 64.4728 32.6243 64.4728C33.3432 64.4728 34.0549 64.3306 34.7185 64.0543C35.3822 63.7781 35.9846 63.3732 36.491 62.8631L63.2123 36.1349C64.231 35.1157 64.8033 33.7336 64.8033 32.2926C64.8033 30.8516 64.231 29.4695 63.2123 28.4503M57.9938 36.1349L36.512 57.6796C36.0055 58.1897 35.4031 58.5945 34.7395 58.8708C34.0759 59.147 33.3641 59.2893 32.6453 59.2893C31.9264 59.2893 31.2147 59.147 30.5511 58.8708C29.8875 58.5945 29.285 58.1897 28.7786 57.6796L7.25484 35.7926C6.24122 34.7707 5.67247 33.3896 5.67247 31.9503C5.67247 30.511 6.24122 29.1299 7.25484 28.108L28.562 6.80088C29.5821 5.78387 30.9638 5.21277 32.4043 5.21277C33.8447 5.21277 35.2264 5.78387 36.2465 6.80088L57.9379 28.4923C58.9532 29.5133 59.5232 30.8946 59.5232 32.3345C59.5232 33.7744 58.9532 35.1558 57.9379 36.1768" fill="#6C2A80"/>
<path d="M17.3076 27.2351L24.105 20.4657C24.4519 20.1201 24.9216 19.9261 25.4113 19.9261C25.901 19.9261 26.3707 20.1201 26.7177 20.4657L28.4502 22.1982C28.8013 22.5437 29.2753 22.7357 29.7679 22.7317C30.2605 22.7278 30.7314 22.5283 31.0769 22.1772C31.4225 21.8261 31.6144 21.3521 31.6105 20.8595C31.6065 20.3669 31.4071 19.8961 31.056 19.5505L29.3374 17.825C29.1655 17.6536 29.0291 17.45 28.936 17.2259C28.8429 17.0017 28.795 16.7613 28.795 16.5186C28.795 16.2759 28.8429 16.0355 28.936 15.8114C29.0291 15.5872 29.1655 15.3836 29.3374 15.2122L31.5101 13.0536C31.8558 12.7085 32.3244 12.5146 32.8129 12.5146C33.3015 12.5146 33.7701 12.7085 34.1158 13.0536L36.512 15.4637C36.8594 15.8093 37.3298 16.0027 37.8198 16.0014C38.3098 16 38.7792 15.8041 39.1248 15.4567C39.4703 15.1093 39.6637 14.6389 39.6624 14.1489C39.6611 13.6589 39.4652 13.1895 39.1178 12.844L34.1158 7.87001C33.7701 7.52489 33.3015 7.33105 32.8129 7.33105C32.3244 7.33105 31.8558 7.52489 31.5101 7.87001L14.7019 24.6014C14.5289 24.7725 14.3914 24.9759 14.2971 25.2002C14.2028 25.4244 14.1536 25.6651 14.1523 25.9083C14.151 26.1516 14.1976 26.3927 14.2895 26.618C14.3814 26.8432 14.5168 27.0482 14.6879 27.2211C14.859 27.394 15.0625 27.5316 15.2867 27.6259C15.511 27.7201 15.7516 27.7693 15.9949 27.7706C16.2381 27.7719 16.4793 27.7253 16.7045 27.6334C16.9298 27.5415 17.1347 27.4062 17.3076 27.2351Z" fill="#6C2A80"/>
<path d="M49.8272 38.1884C49.4815 37.8432 49.0129 37.6494 48.5244 37.6494C48.0358 37.6494 47.5672 37.8432 47.2215 38.1884L40.8014 44.6085C40.4544 44.954 39.9847 45.148 39.495 45.148C39.0053 45.148 38.5356 44.954 38.1886 44.6085L36.3374 42.7502C35.9904 42.4046 35.5207 42.2106 35.031 42.2106C34.5413 42.2106 34.0716 42.4046 33.7246 42.7502C33.5478 42.9221 33.4071 43.1277 33.3108 43.3548C33.2145 43.5819 33.1646 43.8259 33.1639 44.0726C33.1633 44.3192 33.2119 44.5635 33.307 44.7911C33.4021 45.0187 33.5417 45.225 33.7176 45.3979L35.5689 47.2491C35.7417 47.42 35.8789 47.6235 35.9725 47.8477C36.0661 48.0719 36.1143 48.3125 36.1143 48.5555C36.1143 48.7985 36.0661 49.0391 35.9725 49.2633C35.8789 49.4876 35.7417 49.691 35.5689 49.8619L33.4731 51.9577C33.1262 52.3032 32.6564 52.4972 32.1667 52.4972C31.6771 52.4972 31.2073 52.3032 30.8604 51.9577L28.7227 49.82C28.5674 49.6025 28.3667 49.4213 28.1345 49.289C27.9022 49.1567 27.644 49.0765 27.3777 49.0539C27.1114 49.0312 26.8434 49.0668 26.5922 49.158C26.341 49.2492 26.1126 49.3939 25.9228 49.5821C25.7331 49.7703 25.5865 49.9975 25.4933 50.248C25.4 50.4985 25.3623 50.7662 25.3827 51.0327C25.4032 51.2992 25.4813 51.558 25.6117 51.7913C25.7421 52.0246 25.9216 52.2268 26.1379 52.3838L30.8813 57.1273C31.0522 57.3001 31.2556 57.4372 31.4799 57.5308C31.7041 57.6245 31.9447 57.6727 32.1877 57.6727C32.4307 57.6727 32.6713 57.6245 32.8955 57.5308C33.1198 57.4372 33.3232 57.3001 33.4941 57.1273L49.8272 40.7941C49.999 40.6234 50.1352 40.4204 50.2282 40.1968C50.3212 39.9732 50.3691 39.7334 50.3691 39.4912C50.3691 39.2491 50.3212 39.0093 50.2282 38.7857C50.1352 38.5621 49.999 38.3591 49.8272 38.1884Z" fill="#6C2A80"/>
<path d="M13.7238 33.8367V33.8018C13.3783 33.4548 13.1843 32.9851 13.1843 32.4954C13.1843 32.0057 13.3783 31.536 13.7238 31.189C14.0703 30.8425 14.2649 30.3726 14.2649 29.8826C14.2649 29.3927 14.0703 28.9227 13.7238 28.5763C13.3774 28.2298 12.9074 28.0352 12.4174 28.0352C11.9275 28.0352 11.4576 28.2298 11.1111 28.5763L8.47039 31.217C8.29761 31.3878 8.16045 31.5913 8.06684 31.8155C7.97322 32.0398 7.92502 32.2803 7.92502 32.5233C7.92502 32.7663 7.97322 33.0069 8.06684 33.2312C8.16045 33.4554 8.29761 33.6588 8.47039 33.8297L11.1111 36.4704C11.4566 36.8169 11.9257 37.0119 12.415 37.0125C12.9043 37.0132 13.3739 36.8194 13.7203 36.4739C14.0668 36.1283 14.2618 35.6593 14.2625 35.17C14.2631 34.6807 14.0694 34.2111 13.7238 33.8646" fill="#6C2A80"/>
<path d="M52.44 26.2359C52.2684 26.0648 52.0648 25.9292 51.8409 25.8368C51.6169 25.7443 51.3769 25.6969 51.1346 25.6973C50.8923 25.6976 50.6525 25.7456 50.4287 25.8387C50.205 25.9317 50.0018 26.0679 49.8307 26.2394C49.6596 26.411 49.524 26.6145 49.4316 26.8385C49.3391 27.0625 49.2917 27.3025 49.2921 27.5448C49.2924 27.787 49.3404 28.0269 49.4334 28.2506C49.5265 28.4744 49.6627 28.6776 49.8342 28.8487L51.9789 31.0003C52.324 31.3461 52.5178 31.8147 52.5178 32.3032C52.5178 32.7917 52.324 33.2603 51.9789 33.6061L50.6376 34.9195C50.2874 35.2696 50.0907 35.7446 50.0907 36.2398C50.0907 36.735 50.2874 37.21 50.6376 37.5601C50.9878 37.9103 51.4627 38.107 51.9579 38.107C52.4531 38.107 52.9281 37.9103 53.2783 37.5601L57.2323 33.6061C57.5774 33.2603 57.7713 32.7917 57.7713 32.3032C57.7713 31.8147 57.5774 31.3461 57.2323 31.0003L52.44 26.2359Z" fill="#6C2A80"/>
<path d="M41.493 33.1661C41.7677 33.4457 41.9217 33.822 41.9217 34.214C41.9217 34.606 41.7677 34.9823 41.493 35.2619L40.4032 36.3447C40.1301 36.6251 39.9772 37.0011 39.9772 37.3926C39.9772 37.784 40.1301 38.16 40.4032 38.4405L40.9062 38.9365C41.0437 39.0742 41.207 39.1835 41.3868 39.258C41.5667 39.3325 41.7594 39.3709 41.9541 39.3709C42.1487 39.3709 42.3414 39.3325 42.5212 39.258C42.701 39.1835 42.8644 39.0742 43.0019 38.9365L46.7045 35.2409C46.9776 34.9605 47.1304 34.5845 47.1304 34.193C47.1304 33.8016 46.9776 33.4256 46.7045 33.1451L41.493 27.9336C41.2134 27.6588 40.8371 27.5049 40.4451 27.5049C40.0531 27.5049 39.6768 27.6588 39.3972 27.9336L39.2784 28.0524L24.6778 42.8067C24.3965 43.0782 24.0208 43.2299 23.6299 43.2299C23.239 43.2299 22.8633 43.0782 22.582 42.8067L17.0841 37.3018C16.8045 37.027 16.4282 36.873 16.0362 36.873C15.6442 36.873 15.2679 37.027 14.9883 37.3018L14.4923 37.8048C14.3546 37.9423 14.2453 38.1057 14.1708 38.2855C14.0962 38.4653 14.0578 38.658 14.0578 38.8527C14.0578 39.0473 14.0962 39.24 14.1708 39.4198C14.2453 39.5996 14.3546 39.763 14.4923 39.9005L22.6169 48.0252C22.8965 48.3 23.2728 48.4539 23.6648 48.4539C24.0568 48.4539 24.4331 48.3 24.7127 48.0252L39.3832 33.1521C39.6628 32.8774 40.0391 32.7234 40.4311 32.7234C40.8231 32.7234 41.1994 32.8774 41.479 33.1521" fill="#6C2A80"/>
<path d="M26.3893 31.2099C26.1014 31.4957 25.7122 31.6561 25.3065 31.6561C24.9008 31.6561 24.5116 31.4957 24.2237 31.2099L23.6089 30.5951C23.3231 30.3072 23.1627 29.918 23.1627 29.5123C23.1627 29.1066 23.3231 28.7174 23.6089 28.4295L27.4652 24.5732C27.6084 24.4316 27.7221 24.263 27.7997 24.0771C27.8773 23.8912 27.9172 23.6918 27.9172 23.4904C27.9172 23.289 27.8773 23.0896 27.7997 22.9037C27.7221 22.7179 27.6084 22.5492 27.4652 22.4076L27.0181 21.9605C26.7314 21.6751 26.3433 21.5149 25.9388 21.5149C25.5342 21.5149 25.1461 21.6751 24.8594 21.9605L19.9204 26.8996L18.3485 28.4085C18.2053 28.5502 18.0916 28.7188 18.014 28.9047C17.9364 29.0905 17.8965 29.2899 17.8965 29.4914C17.8965 29.6928 17.9364 29.8922 18.014 30.078C18.0916 30.2639 18.2053 30.4325 18.3485 30.5742L24.2307 36.4563C24.5174 36.7417 24.9055 36.902 25.31 36.902C25.7146 36.902 26.1026 36.7417 26.3893 36.4563L27.9402 34.9194L40.99 21.8627C41.1317 21.72 41.3002 21.6067 41.4857 21.5291C41.6713 21.4516 41.8703 21.4113 42.0714 21.4107C42.2725 21.41 42.4717 21.449 42.6578 21.5254C42.8438 21.6017 43.013 21.714 43.1556 21.8557C43.2983 21.9974 43.4116 22.1659 43.4892 22.3514C43.5667 22.537 43.607 22.736 43.6077 22.9371C43.6083 23.1382 43.5693 23.3374 43.493 23.5235C43.4166 23.7095 43.3043 23.8787 43.1626 24.0214L42.5758 24.6152C42.4334 24.7573 42.3205 24.926 42.2434 25.1118C42.1664 25.2977 42.1267 25.4968 42.1267 25.698C42.1267 25.8991 42.1664 26.0983 42.2434 26.2841C42.3205 26.4699 42.4334 26.6387 42.5758 26.7808L43.0229 27.2279C43.3108 27.5137 43.7 27.6741 44.1057 27.6741C44.5114 27.6741 44.9007 27.5137 45.1886 27.2279L49.3801 22.9735L49.0588 22.6591L43.0858 16.6093C42.9441 16.4661 42.7755 16.3524 42.5897 16.2748C42.4038 16.1972 42.2044 16.1572 42.0029 16.1572C41.8015 16.1572 41.6021 16.1972 41.4163 16.2748C41.2304 16.3524 41.0618 16.4661 40.9201 16.6093L39.4461 18.1532L26.3893 31.2099Z" fill="#6C2A80"/>
<path d="M15.624 31.2656C15.3548 31.5354 15.2036 31.901 15.2036 32.2821C15.2036 32.6632 15.3548 33.0288 15.624 33.2985L21.59 39.3484C21.8577 39.6189 22.222 39.772 22.6025 39.7739C22.9831 39.7759 23.3489 39.6266 23.6194 39.3589C23.8899 39.0911 24.043 38.7269 24.045 38.3463C24.0469 37.9657 23.8976 37.5999 23.6299 37.3294L17.6499 31.2796C17.5194 31.1422 17.3623 31.0328 17.1882 30.958C17.014 30.8833 16.8265 30.8447 16.637 30.8447C16.4475 30.8447 16.2599 30.8833 16.0858 30.958C15.9116 31.0328 15.7545 31.1422 15.624 31.2796" fill="#6C2A80"/>
<path d="M45.95 30.7276L48.1785 32.9491C48.3116 33.0826 48.4696 33.1886 48.6435 33.261C48.8175 33.3334 49.0041 33.3709 49.1925 33.3712C49.381 33.3715 49.5676 33.3347 49.7419 33.2629C49.9161 33.1911 50.0745 33.0857 50.208 32.9526C50.3414 32.8196 50.4474 32.6616 50.5198 32.4876C50.5922 32.3136 50.6297 32.1271 50.63 31.9386C50.6303 31.7502 50.5935 31.5635 50.5217 31.3893C50.4499 31.2151 50.3445 31.0567 50.2114 30.9232L47.9829 28.6947C47.7093 28.4459 47.3503 28.3119 46.9806 28.3207C46.6108 28.3295 46.2587 28.4803 45.9971 28.7418C45.7356 29.0033 45.5848 29.3555 45.576 29.7253C45.5673 30.095 45.7012 30.454 45.95 30.7276Z" fill="#6C2A80"/>
<path d="M38.6567 38.8314C38.383 38.5826 38.0241 38.4487 37.6544 38.4574C37.2846 38.4662 36.9324 38.617 36.6709 38.8785C36.4094 39.1401 36.2586 39.4922 36.2498 39.862C36.241 40.2317 36.3749 40.5907 36.6238 40.8643L38.2585 42.499C38.5321 42.7479 38.8911 42.8818 39.2608 42.873C39.6306 42.8642 39.9827 42.7134 40.2443 42.4519C40.5058 42.1904 40.6566 41.8382 40.6654 41.4684C40.6741 41.0987 40.5402 40.7398 40.2914 40.4661L38.6567 38.8314Z" fill="#6C2A80"/>
<path d="M29.6867 47.753L31.2097 49.2759C31.3407 49.42 31.4996 49.536 31.6767 49.6169C31.8538 49.6977 32.0456 49.7418 32.2402 49.7464C32.4349 49.7511 32.6285 49.7161 32.8093 49.6437C32.9901 49.5714 33.1543 49.463 33.292 49.3253C33.4297 49.1876 33.538 49.0234 33.6104 48.8427C33.6828 48.6619 33.7177 48.4683 33.7131 48.2736C33.7085 48.0789 33.6644 47.8872 33.5835 47.7101C33.5026 47.5329 33.3866 47.374 33.2426 47.243L31.7196 45.7201C31.446 45.4713 31.0871 45.3373 30.7173 45.3461C30.3476 45.3549 29.9954 45.5057 29.7338 45.7672C29.4723 46.0287 29.3215 46.3809 29.3128 46.7507C29.304 47.1204 29.4379 47.4794 29.6867 47.753Z" fill="#6C2A80"/>
</svg>
